<svg width="604" height="345" viewBox="0 0 604 345" fill="none" xmlns="http://www.w3.org/2000/svg">
<rect width="604" height="345" fill="#03091D"/>
<path d="M57.936 119.8H74.064C79.312 119.8 83.248 121.208 85.872 124.024C88.496 126.84 89.808 130.968 89.808 136.408V170.392C89.808 175.832 88.496 179.96 85.872 182.776C83.248 185.592 79.312 187 74.064 187H57.936V119.8ZM73.872 177.4C75.6 177.4 76.912 176.888 77.808 175.864C78.768 174.84 79.248 173.176 79.248 170.872V135.928C79.248 133.624 78.768 131.96 77.808 130.936C76.912 129.912 75.6 129.4 73.872 129.4H68.496V177.4H73.872ZM104.909 119.8H119.213L130.157 187H119.597L117.677 173.656V173.848H105.677L103.757 187H93.9645L104.909 119.8ZM116.429 164.728L111.725 131.512H111.533L106.924 164.728H116.429ZM139.13 129.4H128.09V119.8H160.73V129.4H149.69V187H139.13V129.4ZM169.596 119.8H183.9L194.844 187H184.284L182.364 173.656V173.848H170.364L168.444 187H158.652L169.596 119.8ZM181.116 164.728L176.412 131.512H176.22L171.612 164.728H181.116ZM229.07 187.96C223.95 187.96 220.078 186.52 217.454 183.64C214.83 180.696 213.518 176.504 213.518 171.064V167.224H223.502V171.832C223.502 176.184 225.326 178.36 228.974 178.36C230.766 178.36 232.11 177.848 233.006 176.824C233.966 175.736 234.446 174.008 234.446 171.64C234.446 168.824 233.806 166.36 232.526 164.248C231.246 162.072 228.878 159.48 225.422 156.472C221.07 152.632 218.03 149.176 216.302 146.104C214.574 142.968 213.71 139.448 213.71 135.544C213.71 130.232 215.054 126.136 217.742 123.256C220.43 120.312 224.334 118.84 229.454 118.84C234.51 118.84 238.318 120.312 240.878 123.256C243.502 126.136 244.814 130.296 244.814 135.736V138.52H234.83V135.064C234.83 132.76 234.382 131.096 233.486 130.072C232.59 128.984 231.278 128.44 229.55 128.44C226.03 128.44 224.27 130.584 224.27 134.872C224.27 137.304 224.91 139.576 226.19 141.688C227.534 143.8 229.934 146.36 233.39 149.368C237.806 153.208 240.846 156.696 242.51 159.832C244.174 162.968 245.006 166.648 245.006 170.872C245.006 176.376 243.63 180.6 240.878 183.544C238.19 186.488 234.254 187.96 229.07 187.96ZM265.941 187.96C260.885 187.96 257.013 186.52 254.325 183.64C251.701 180.76 250.389 176.696 250.389 171.448V135.352C250.389 130.104 251.701 126.04 254.325 123.16C257.013 120.28 260.885 118.84 265.941 118.84C270.997 118.84 274.837 120.28 277.461 123.16C280.149 126.04 281.493 130.104 281.493 135.352V142.456H271.509V134.68C271.509 130.52 269.749 128.44 266.229 128.44C262.709 128.44 260.949 130.52 260.949 134.68V172.216C260.949 176.312 262.709 178.36 266.229 178.36C269.749 178.36 271.509 176.312 271.509 172.216V161.944H281.493V171.448C281.493 176.696 280.149 180.76 277.461 183.64C274.837 186.52 270.997 187.96 265.941 187.96ZM287.811 119.8H298.371V187H287.811V119.8ZM306.28 119.8H335.08V129.4H316.84V147.16H331.336V156.76H316.84V177.4H335.08V187H306.28V119.8ZM341.155 119.8H354.403L364.675 160.024H364.867V119.8H374.275V187H363.427L350.755 137.944H350.563V187H341.155V119.8ZM397.004 187.96C391.948 187.96 388.076 186.52 385.388 183.64C382.764 180.76 381.452 176.696 381.452 171.448V135.352C381.452 130.104 382.764 126.04 385.388 123.16C388.076 120.28 391.948 118.84 397.004 118.84C402.06 118.84 405.9 120.28 408.524 123.16C411.212 126.04 412.556 130.104 412.556 135.352V142.456H402.572V134.68C402.572 130.52 400.812 128.44 397.292 128.44C393.772 128.44 392.012 130.52 392.012 134.68V172.216C392.012 176.312 393.772 178.36 397.292 178.36C400.812 178.36 402.572 176.312 402.572 172.216V161.944H412.556V171.448C412.556 176.696 411.212 180.76 408.524 183.64C405.9 186.52 402.06 187.96 397.004 187.96ZM418.874 119.8H447.674V129.4H429.434V147.16H443.93V156.76H429.434V177.4H447.674V187H418.874V119.8Z" fill="white"/>
<path d="M348.96 195.2H355.744L358.88 229.632H359.008L362.336 195.2H370.016L373.344 229.632H373.472L376.608 195.2H382.688L378.144 240H369.376L366.176 209.792H366.048L362.848 240H353.504L348.96 195.2ZM386.249 195.2H393.289V240H386.249V195.2ZM404.066 201.6H396.706V195.2H418.466V201.6H411.106V240H404.066V201.6ZM421.874 195.2H428.914V213.44H436.466V195.2H443.506V240H436.466V219.84H428.914V240H421.874V195.2Z" fill="white"/>
<path d="M75.125 303V280.156H77.7812V303H75.125ZM91.7812 285.562C93.8125 285.562 95.349 286.062 96.3906 287.062C97.4323 288.052 97.9531 289.646 97.9531 291.844V303H95.3906V292.016C95.3906 290.589 95.0625 289.521 94.4062 288.812C93.7604 288.104 92.7656 287.75 91.4219 287.75C89.526 287.75 88.1927 288.286 87.4219 289.359C86.651 290.432 86.2656 291.99 86.2656 294.031V303H83.6719V285.875H85.7656L86.1562 288.344H86.2969C86.6615 287.74 87.125 287.234 87.6875 286.828C88.25 286.411 88.8802 286.099 89.5781 285.891C90.276 285.672 91.0104 285.562 91.7812 285.562ZM108.828 301.188C109.255 301.188 109.693 301.151 110.141 301.078C110.589 301.005 110.953 300.917 111.234 300.812V302.828C110.932 302.964 110.51 303.078 109.969 303.172C109.438 303.266 108.917 303.312 108.406 303.312C107.5 303.312 106.677 303.156 105.938 302.844C105.198 302.521 104.604 301.979 104.156 301.219C103.719 300.458 103.5 299.406 103.5 298.062V287.906H101.062V286.641L103.516 285.625L104.547 281.906H106.109V285.875H111.125V287.906H106.109V297.984C106.109 299.057 106.354 299.859 106.844 300.391C107.344 300.922 108.005 301.188 108.828 301.188ZM122.484 285.562C122.828 285.562 123.188 285.583 123.562 285.625C123.938 285.656 124.271 285.703 124.562 285.766L124.234 288.172C123.953 288.099 123.641 288.042 123.297 288C122.953 287.958 122.63 287.938 122.328 287.938C121.641 287.938 120.99 288.078 120.375 288.359C119.771 288.63 119.24 289.026 118.781 289.547C118.323 290.057 117.964 290.677 117.703 291.406C117.443 292.125 117.312 292.927 117.312 293.812V303H114.703V285.875H116.859L117.141 289.031H117.25C117.604 288.396 118.031 287.818 118.531 287.297C119.031 286.766 119.609 286.344 120.266 286.031C120.932 285.719 121.672 285.562 122.484 285.562ZM142.562 294.406C142.562 295.812 142.38 297.068 142.016 298.172C141.651 299.276 141.125 300.208 140.438 300.969C139.75 301.729 138.917 302.312 137.938 302.719C136.969 303.115 135.87 303.312 134.641 303.312C133.495 303.312 132.443 303.115 131.484 302.719C130.536 302.312 129.714 301.729 129.016 300.969C128.328 300.208 127.792 299.276 127.406 298.172C127.031 297.068 126.844 295.812 126.844 294.406C126.844 292.531 127.161 290.938 127.797 289.625C128.432 288.302 129.339 287.297 130.516 286.609C131.703 285.911 133.115 285.562 134.75 285.562C136.312 285.562 137.677 285.911 138.844 286.609C140.021 287.307 140.932 288.318 141.578 289.641C142.234 290.953 142.562 292.542 142.562 294.406ZM129.531 294.406C129.531 295.781 129.714 296.974 130.078 297.984C130.443 298.995 131.005 299.776 131.766 300.328C132.526 300.88 133.505 301.156 134.703 301.156C135.891 301.156 136.865 300.88 137.625 300.328C138.396 299.776 138.964 298.995 139.328 297.984C139.693 296.974 139.875 295.781 139.875 294.406C139.875 293.042 139.693 291.865 139.328 290.875C138.964 289.875 138.401 289.104 137.641 288.562C136.88 288.021 135.896 287.75 134.688 287.75C132.906 287.75 131.599 288.339 130.766 289.516C129.943 290.693 129.531 292.323 129.531 294.406ZM153.141 303.312C150.974 303.312 149.255 302.573 147.984 301.094C146.724 299.615 146.094 297.417 146.094 294.5C146.094 291.552 146.74 289.328 148.031 287.828C149.323 286.318 151.042 285.562 153.188 285.562C154.094 285.562 154.885 285.682 155.562 285.922C156.24 286.161 156.823 286.484 157.312 286.891C157.802 287.286 158.214 287.74 158.547 288.25H158.734C158.693 287.927 158.651 287.484 158.609 286.922C158.568 286.359 158.547 285.901 158.547 285.547V278.688H161.141V303H159.047L158.656 300.562H158.547C158.224 301.073 157.812 301.536 157.312 301.953C156.823 302.37 156.234 302.703 155.547 302.953C154.87 303.193 154.068 303.312 153.141 303.312ZM153.547 301.156C155.38 301.156 156.677 300.635 157.438 299.594C158.198 298.552 158.578 297.005 158.578 294.953V294.484C158.578 292.307 158.214 290.635 157.484 289.469C156.766 288.302 155.453 287.719 153.547 287.719C151.953 287.719 150.76 288.333 149.969 289.562C149.177 290.781 148.781 292.448 148.781 294.562C148.781 296.667 149.172 298.292 149.953 299.438C150.745 300.583 151.943 301.156 153.547 301.156ZM180.781 285.875V303H178.656L178.281 300.594H178.141C177.786 301.188 177.328 301.688 176.766 302.094C176.203 302.5 175.568 302.802 174.859 303C174.161 303.208 173.417 303.312 172.625 303.312C171.271 303.312 170.135 303.094 169.219 302.656C168.302 302.219 167.609 301.542 167.141 300.625C166.682 299.708 166.453 298.531 166.453 297.094V285.875H169.078V296.906C169.078 298.333 169.401 299.401 170.047 300.109C170.693 300.807 171.677 301.156 173 301.156C174.271 301.156 175.281 300.917 176.031 300.438C176.792 299.958 177.339 299.255 177.672 298.328C178.005 297.391 178.172 296.245 178.172 294.891V285.875H180.781ZM193.125 303.312C191.583 303.312 190.224 302.995 189.047 302.359C187.87 301.724 186.953 300.755 186.297 299.453C185.641 298.151 185.312 296.51 185.312 294.531C185.312 292.458 185.656 290.766 186.344 289.453C187.042 288.13 188 287.151 189.219 286.516C190.438 285.88 191.823 285.562 193.375 285.562C194.229 285.562 195.052 285.651 195.844 285.828C196.646 285.995 197.302 286.208 197.812 286.469L197.031 288.641C196.51 288.432 195.906 288.245 195.219 288.078C194.542 287.911 193.906 287.828 193.312 287.828C192.125 287.828 191.135 288.083 190.344 288.594C189.562 289.104 188.974 289.854 188.578 290.844C188.193 291.833 188 293.052 188 294.5C188 295.885 188.188 297.068 188.562 298.047C188.948 299.026 189.516 299.776 190.266 300.297C191.026 300.807 191.974 301.062 193.109 301.062C194.016 301.062 194.833 300.969 195.562 300.781C196.292 300.583 196.953 300.354 197.547 300.094V302.406C196.974 302.698 196.333 302.922 195.625 303.078C194.927 303.234 194.094 303.312 193.125 303.312ZM207.141 301.188C207.568 301.188 208.005 301.151 208.453 301.078C208.901 301.005 209.266 300.917 209.547 300.812V302.828C209.245 302.964 208.823 303.078 208.281 303.172C207.75 303.266 207.229 303.312 206.719 303.312C205.812 303.312 204.99 303.156 204.25 302.844C203.51 302.521 202.917 301.979 202.469 301.219C202.031 300.458 201.812 299.406 201.812 298.062V287.906H199.375V286.641L201.828 285.625L202.859 281.906H204.422V285.875H209.438V287.906H204.422V297.984C204.422 299.057 204.667 299.859 205.156 300.391C205.656 300.922 206.318 301.188 207.141 301.188ZM215.609 285.875V303H213.016V285.875H215.609ZM214.344 279.469C214.771 279.469 215.135 279.609 215.438 279.891C215.75 280.161 215.906 280.589 215.906 281.172C215.906 281.745 215.75 282.172 215.438 282.453C215.135 282.734 214.771 282.875 214.344 282.875C213.896 282.875 213.521 282.734 213.219 282.453C212.927 282.172 212.781 281.745 212.781 281.172C212.781 280.589 212.927 280.161 213.219 279.891C213.521 279.609 213.896 279.469 214.344 279.469ZM235.875 294.406C235.875 295.812 235.693 297.068 235.328 298.172C234.964 299.276 234.438 300.208 233.75 300.969C233.062 301.729 232.229 302.312 231.25 302.719C230.281 303.115 229.182 303.312 227.953 303.312C226.807 303.312 225.755 303.115 224.797 302.719C223.849 302.312 223.026 301.729 222.328 300.969C221.641 300.208 221.104 299.276 220.719 298.172C220.344 297.068 220.156 295.812 220.156 294.406C220.156 292.531 220.474 290.938 221.109 289.625C221.745 288.302 222.651 287.297 223.828 286.609C225.016 285.911 226.427 285.562 228.062 285.562C229.625 285.562 230.99 285.911 232.156 286.609C233.333 287.307 234.245 288.318 234.891 289.641C235.547 290.953 235.875 292.542 235.875 294.406ZM222.844 294.406C222.844 295.781 223.026 296.974 223.391 297.984C223.755 298.995 224.318 299.776 225.078 300.328C225.839 300.88 226.818 301.156 228.016 301.156C229.203 301.156 230.177 300.88 230.938 300.328C231.708 299.776 232.276 298.995 232.641 297.984C233.005 296.974 233.188 295.781 233.188 294.406C233.188 293.042 233.005 291.865 232.641 290.875C232.276 289.875 231.714 289.104 230.953 288.562C230.193 288.021 229.208 287.75 228 287.75C226.219 287.75 224.911 288.339 224.078 289.516C223.255 290.693 222.844 292.323 222.844 294.406ZM248.469 285.562C250.5 285.562 252.036 286.062 253.078 287.062C254.12 288.052 254.641 289.646 254.641 291.844V303H252.078V292.016C252.078 290.589 251.75 289.521 251.094 288.812C250.448 288.104 249.453 287.75 248.109 287.75C246.214 287.75 244.88 288.286 244.109 289.359C243.339 290.432 242.953 291.99 242.953 294.031V303H240.359V285.875H242.453L242.844 288.344H242.984C243.349 287.74 243.812 287.234 244.375 286.828C244.938 286.411 245.568 286.099 246.266 285.891C246.964 285.672 247.698 285.562 248.469 285.562ZM273.828 301.188C274.255 301.188 274.693 301.151 275.141 301.078C275.589 301.005 275.953 300.917 276.234 300.812V302.828C275.932 302.964 275.51 303.078 274.969 303.172C274.438 303.266 273.917 303.312 273.406 303.312C272.5 303.312 271.677 303.156 270.938 302.844C270.198 302.521 269.604 301.979 269.156 301.219C268.719 300.458 268.5 299.406 268.5 298.062V287.906H266.062V286.641L268.516 285.625L269.547 281.906H271.109V285.875H276.125V287.906H271.109V297.984C271.109 299.057 271.354 299.859 271.844 300.391C272.344 300.922 273.005 301.188 273.828 301.188ZM294.469 294.406C294.469 295.812 294.286 297.068 293.922 298.172C293.557 299.276 293.031 300.208 292.344 300.969C291.656 301.729 290.823 302.312 289.844 302.719C288.875 303.115 287.776 303.312 286.547 303.312C285.401 303.312 284.349 303.115 283.391 302.719C282.443 302.312 281.62 301.729 280.922 300.969C280.234 300.208 279.698 299.276 279.312 298.172C278.938 297.068 278.75 295.812 278.75 294.406C278.75 292.531 279.068 290.938 279.703 289.625C280.339 288.302 281.245 287.297 282.422 286.609C283.609 285.911 285.021 285.562 286.656 285.562C288.219 285.562 289.583 285.911 290.75 286.609C291.927 287.307 292.839 288.318 293.484 289.641C294.141 290.953 294.469 292.542 294.469 294.406ZM281.438 294.406C281.438 295.781 281.62 296.974 281.984 297.984C282.349 298.995 282.911 299.776 283.672 300.328C284.432 300.88 285.411 301.156 286.609 301.156C287.797 301.156 288.771 300.88 289.531 300.328C290.302 299.776 290.87 298.995 291.234 297.984C291.599 296.974 291.781 295.781 291.781 294.406C291.781 293.042 291.599 291.865 291.234 290.875C290.87 289.875 290.307 289.104 289.547 288.562C288.786 288.021 287.802 287.75 286.594 287.75C284.812 287.75 283.505 288.339 282.672 289.516C281.849 290.693 281.438 292.323 281.438 294.406ZM313.828 280.156C315.703 280.156 317.25 280.391 318.469 280.859C319.698 281.318 320.615 282.021 321.219 282.969C321.823 283.917 322.125 285.125 322.125 286.594C322.125 287.802 321.906 288.812 321.469 289.625C321.031 290.427 320.458 291.078 319.75 291.578C319.042 292.078 318.286 292.464 317.484 292.734L323.75 303H320.656L315.062 293.469H310.312V303H307.656V280.156H313.828ZM313.672 282.453H310.312V291.219H313.938C315.802 291.219 317.172 290.839 318.047 290.078C318.932 289.318 319.375 288.198 319.375 286.719C319.375 285.167 318.906 284.068 317.969 283.422C317.042 282.776 315.609 282.453 313.672 282.453ZM341.734 285.594C343.776 285.594 345.292 286.052 346.281 286.969C347.271 287.885 347.766 289.349 347.766 291.359V303H345.875L345.375 300.469H345.25C344.771 301.094 344.271 301.62 343.75 302.047C343.229 302.464 342.625 302.781 341.938 303C341.26 303.208 340.427 303.312 339.438 303.312C338.396 303.312 337.469 303.13 336.656 302.766C335.854 302.401 335.219 301.849 334.75 301.109C334.292 300.37 334.062 299.432 334.062 298.297C334.062 296.589 334.74 295.276 336.094 294.359C337.448 293.443 339.51 292.943 342.281 292.859L345.234 292.734V291.688C345.234 290.208 344.917 289.172 344.281 288.578C343.646 287.984 342.75 287.688 341.594 287.688C340.698 287.688 339.844 287.818 339.031 288.078C338.219 288.339 337.448 288.646 336.719 289L335.922 287.031C336.693 286.635 337.578 286.297 338.578 286.016C339.578 285.734 340.63 285.594 341.734 285.594ZM345.203 294.562L342.594 294.672C340.458 294.755 338.953 295.104 338.078 295.719C337.203 296.333 336.766 297.203 336.766 298.328C336.766 299.307 337.062 300.031 337.656 300.5C338.25 300.969 339.036 301.203 340.016 301.203C341.536 301.203 342.781 300.781 343.75 299.938C344.719 299.094 345.203 297.828 345.203 296.141V294.562ZM361.219 285.562C363.25 285.562 364.786 286.062 365.828 287.062C366.87 288.052 367.391 289.646 367.391 291.844V303H364.828V292.016C364.828 290.589 364.5 289.521 363.844 288.812C363.198 288.104 362.203 287.75 360.859 287.75C358.964 287.75 357.63 288.286 356.859 289.359C356.089 290.432 355.703 291.99 355.703 294.031V303H353.109V285.875H355.203L355.594 288.344H355.734C356.099 287.74 356.562 287.234 357.125 286.828C357.688 286.411 358.318 286.099 359.016 285.891C359.714 285.672 360.448 285.562 361.219 285.562ZM378.828 303.312C376.661 303.312 374.943 302.573 373.672 301.094C372.411 299.615 371.781 297.417 371.781 294.5C371.781 291.552 372.427 289.328 373.719 287.828C375.01 286.318 376.729 285.562 378.875 285.562C379.781 285.562 380.573 285.682 381.25 285.922C381.927 286.161 382.51 286.484 383 286.891C383.49 287.286 383.901 287.74 384.234 288.25H384.422C384.38 287.927 384.339 287.484 384.297 286.922C384.255 286.359 384.234 285.901 384.234 285.547V278.688H386.828V303H384.734L384.344 300.562H384.234C383.911 301.073 383.5 301.536 383 301.953C382.51 302.37 381.922 302.703 381.234 302.953C380.557 303.193 379.755 303.312 378.828 303.312ZM379.234 301.156C381.068 301.156 382.365 300.635 383.125 299.594C383.885 298.552 384.266 297.005 384.266 294.953V294.484C384.266 292.307 383.901 290.635 383.172 289.469C382.453 288.302 381.141 287.719 379.234 287.719C377.641 287.719 376.448 288.333 375.656 289.562C374.865 290.781 374.469 292.448 374.469 294.562C374.469 296.667 374.859 298.292 375.641 299.438C376.432 300.583 377.63 301.156 379.234 301.156ZM413.922 296.922C413.922 298.276 413.583 299.432 412.906 300.391C412.24 301.339 411.302 302.062 410.094 302.562C408.885 303.062 407.464 303.312 405.828 303.312C404.964 303.312 404.146 303.271 403.375 303.188C402.604 303.104 401.896 302.984 401.25 302.828C400.604 302.672 400.036 302.479 399.547 302.25V299.703C400.328 300.026 401.281 300.328 402.406 300.609C403.531 300.88 404.708 301.016 405.938 301.016C407.083 301.016 408.052 300.865 408.844 300.562C409.635 300.25 410.234 299.807 410.641 299.234C411.057 298.651 411.266 297.953 411.266 297.141C411.266 296.359 411.094 295.708 410.75 295.188C410.406 294.656 409.833 294.177 409.031 293.75C408.24 293.312 407.156 292.849 405.781 292.359C404.812 292.016 403.958 291.641 403.219 291.234C402.479 290.818 401.859 290.349 401.359 289.828C400.859 289.307 400.479 288.703 400.219 288.016C399.969 287.328 399.844 286.542 399.844 285.656C399.844 284.438 400.151 283.396 400.766 282.531C401.391 281.656 402.25 280.99 403.344 280.531C404.448 280.062 405.714 279.828 407.141 279.828C408.359 279.828 409.484 279.943 410.516 280.172C411.557 280.401 412.51 280.708 413.375 281.094L412.547 283.375C411.724 283.031 410.849 282.745 409.922 282.516C409.005 282.286 408.057 282.172 407.078 282.172C406.099 282.172 405.271 282.318 404.594 282.609C403.927 282.891 403.417 283.292 403.062 283.812C402.708 284.333 402.531 284.953 402.531 285.672C402.531 286.474 402.698 287.141 403.031 287.672C403.375 288.203 403.917 288.677 404.656 289.094C405.406 289.5 406.396 289.927 407.625 290.375C408.969 290.865 410.109 291.385 411.047 291.938C411.984 292.479 412.698 293.146 413.188 293.938C413.677 294.719 413.922 295.714 413.922 296.922ZM423.734 301.188C424.161 301.188 424.599 301.151 425.047 301.078C425.495 301.005 425.859 300.917 426.141 300.812V302.828C425.839 302.964 425.417 303.078 424.875 303.172C424.344 303.266 423.823 303.312 423.312 303.312C422.406 303.312 421.583 303.156 420.844 302.844C420.104 302.521 419.51 301.979 419.062 301.219C418.625 300.458 418.406 299.406 418.406 298.062V287.906H415.969V286.641L418.422 285.625L419.453 281.906H421.016V285.875H426.031V287.906H421.016V297.984C421.016 299.057 421.26 299.859 421.75 300.391C422.25 300.922 422.911 301.188 423.734 301.188ZM436.016 285.594C438.057 285.594 439.573 286.052 440.562 286.969C441.552 287.885 442.047 289.349 442.047 291.359V303H440.156L439.656 300.469H439.531C439.052 301.094 438.552 301.62 438.031 302.047C437.51 302.464 436.906 302.781 436.219 303C435.542 303.208 434.708 303.312 433.719 303.312C432.677 303.312 431.75 303.13 430.938 302.766C430.135 302.401 429.5 301.849 429.031 301.109C428.573 300.37 428.344 299.432 428.344 298.297C428.344 296.589 429.021 295.276 430.375 294.359C431.729 293.443 433.792 292.943 436.562 292.859L439.516 292.734V291.688C439.516 290.208 439.198 289.172 438.562 288.578C437.927 287.984 437.031 287.688 435.875 287.688C434.979 287.688 434.125 287.818 433.312 288.078C432.5 288.339 431.729 288.646 431 289L430.203 287.031C430.974 286.635 431.859 286.297 432.859 286.016C433.859 285.734 434.911 285.594 436.016 285.594ZM439.484 294.562L436.875 294.672C434.74 294.755 433.234 295.104 432.359 295.719C431.484 296.333 431.047 297.203 431.047 298.328C431.047 299.307 431.344 300.031 431.938 300.5C432.531 300.969 433.318 301.203 434.297 301.203C435.818 301.203 437.062 300.781 438.031 299.938C439 299.094 439.484 297.828 439.484 296.141V294.562ZM452.922 301.188C453.349 301.188 453.786 301.151 454.234 301.078C454.682 301.005 455.047 300.917 455.328 300.812V302.828C455.026 302.964 454.604 303.078 454.062 303.172C453.531 303.266 453.01 303.312 452.5 303.312C451.594 303.312 450.771 303.156 450.031 302.844C449.292 302.521 448.698 301.979 448.25 301.219C447.812 300.458 447.594 299.406 447.594 298.062V287.906H445.156V286.641L447.609 285.625L448.641 281.906H450.203V285.875H455.219V287.906H450.203V297.984C450.203 299.057 450.448 299.859 450.938 300.391C451.438 300.922 452.099 301.188 452.922 301.188ZM461.391 285.875V303H458.797V285.875H461.391ZM460.125 279.469C460.552 279.469 460.917 279.609 461.219 279.891C461.531 280.161 461.688 280.589 461.688 281.172C461.688 281.745 461.531 282.172 461.219 282.453C460.917 282.734 460.552 282.875 460.125 282.875C459.677 282.875 459.302 282.734 459 282.453C458.708 282.172 458.562 281.745 458.562 281.172C458.562 280.589 458.708 280.161 459 279.891C459.302 279.609 459.677 279.469 460.125 279.469ZM477.969 298.312C477.969 299.406 477.693 300.328 477.141 301.078C476.599 301.818 475.818 302.375 474.797 302.75C473.786 303.125 472.578 303.312 471.172 303.312C469.974 303.312 468.938 303.219 468.062 303.031C467.188 302.844 466.422 302.578 465.766 302.234V299.844C466.464 300.188 467.297 300.5 468.266 300.781C469.234 301.062 470.224 301.203 471.234 301.203C472.714 301.203 473.786 300.964 474.453 300.484C475.12 300.005 475.453 299.354 475.453 298.531C475.453 298.062 475.318 297.651 475.047 297.297C474.786 296.932 474.344 296.583 473.719 296.25C473.094 295.906 472.229 295.531 471.125 295.125C470.031 294.708 469.083 294.297 468.281 293.891C467.49 293.474 466.875 292.969 466.438 292.375C466.01 291.781 465.797 291.01 465.797 290.062C465.797 288.615 466.38 287.505 467.547 286.734C468.724 285.953 470.266 285.562 472.172 285.562C473.203 285.562 474.167 285.667 475.062 285.875C475.969 286.073 476.812 286.344 477.594 286.688L476.719 288.766C476.01 288.464 475.255 288.208 474.453 288C473.651 287.792 472.833 287.688 472 287.688C470.802 287.688 469.88 287.885 469.234 288.281C468.599 288.677 468.281 289.219 468.281 289.906C468.281 290.438 468.427 290.875 468.719 291.219C469.021 291.562 469.5 291.885 470.156 292.188C470.812 292.49 471.677 292.844 472.75 293.25C473.823 293.646 474.75 294.057 475.531 294.484C476.312 294.901 476.911 295.411 477.328 296.016C477.755 296.609 477.969 297.375 477.969 298.312ZM487.672 301.188C488.099 301.188 488.536 301.151 488.984 301.078C489.432 301.005 489.797 300.917 490.078 300.812V302.828C489.776 302.964 489.354 303.078 488.812 303.172C488.281 303.266 487.76 303.312 487.25 303.312C486.344 303.312 485.521 303.156 484.781 302.844C484.042 302.521 483.448 301.979 483 301.219C482.562 300.458 482.344 299.406 482.344 298.062V287.906H479.906V286.641L482.359 285.625L483.391 281.906H484.953V285.875H489.969V287.906H484.953V297.984C484.953 299.057 485.198 299.859 485.688 300.391C486.188 300.922 486.849 301.188 487.672 301.188ZM496.141 285.875V303H493.547V285.875H496.141ZM494.875 279.469C495.302 279.469 495.667 279.609 495.969 279.891C496.281 280.161 496.438 280.589 496.438 281.172C496.438 281.745 496.281 282.172 495.969 282.453C495.667 282.734 495.302 282.875 494.875 282.875C494.427 282.875 494.052 282.734 493.75 282.453C493.458 282.172 493.312 281.745 493.312 281.172C493.312 280.589 493.458 280.161 493.75 279.891C494.052 279.609 494.427 279.469 494.875 279.469ZM508.5 303.312C506.958 303.312 505.599 302.995 504.422 302.359C503.245 301.724 502.328 300.755 501.672 299.453C501.016 298.151 500.688 296.51 500.688 294.531C500.688 292.458 501.031 290.766 501.719 289.453C502.417 288.13 503.375 287.151 504.594 286.516C505.812 285.88 507.198 285.562 508.75 285.562C509.604 285.562 510.427 285.651 511.219 285.828C512.021 285.995 512.677 286.208 513.188 286.469L512.406 288.641C511.885 288.432 511.281 288.245 510.594 288.078C509.917 287.911 509.281 287.828 508.688 287.828C507.5 287.828 506.51 288.083 505.719 288.594C504.938 289.104 504.349 289.854 503.953 290.844C503.568 291.833 503.375 293.052 503.375 294.5C503.375 295.885 503.562 297.068 503.938 298.047C504.323 299.026 504.891 299.776 505.641 300.297C506.401 300.807 507.349 301.062 508.484 301.062C509.391 301.062 510.208 300.969 510.938 300.781C511.667 300.583 512.328 300.354 512.922 300.094V302.406C512.349 302.698 511.708 302.922 511 303.078C510.302 303.234 509.469 303.312 508.5 303.312ZM528.062 298.312C528.062 299.406 527.786 300.328 527.234 301.078C526.693 301.818 525.911 302.375 524.891 302.75C523.88 303.125 522.672 303.312 521.266 303.312C520.068 303.312 519.031 303.219 518.156 303.031C517.281 302.844 516.516 302.578 515.859 302.234V299.844C516.557 300.188 517.391 300.5 518.359 300.781C519.328 301.062 520.318 301.203 521.328 301.203C522.807 301.203 523.88 300.964 524.547 300.484C525.214 300.005 525.547 299.354 525.547 298.531C525.547 298.062 525.411 297.651 525.141 297.297C524.88 296.932 524.438 296.583 523.812 296.25C523.188 295.906 522.323 295.531 521.219 295.125C520.125 294.708 519.177 294.297 518.375 293.891C517.583 293.474 516.969 292.969 516.531 292.375C516.104 291.781 515.891 291.01 515.891 290.062C515.891 288.615 516.474 287.505 517.641 286.734C518.818 285.953 520.359 285.562 522.266 285.562C523.297 285.562 524.26 285.667 525.156 285.875C526.062 286.073 526.906 286.344 527.688 286.688L526.812 288.766C526.104 288.464 525.349 288.208 524.547 288C523.745 287.792 522.927 287.688 522.094 287.688C520.896 287.688 519.974 287.885 519.328 288.281C518.693 288.677 518.375 289.219 518.375 289.906C518.375 290.438 518.521 290.875 518.812 291.219C519.115 291.562 519.594 291.885 520.25 292.188C520.906 292.49 521.771 292.844 522.844 293.25C523.917 293.646 524.844 294.057 525.625 294.484C526.406 294.901 527.005 295.411 527.422 296.016C527.849 296.609 528.062 297.375 528.062 298.312Z" fill="white"/>
<rect x="32" y="257" width="498" height="5" fill="#D9D9D9"/>
<rect x="461" y="121" width="77" height="120" rx="10" fill="white"/>
<path d="M481.92 142H501.48C508.28 142 513.24 143.6 516.36 146.8C519.48 149.92 521.04 154.76 521.04 161.32V166.48C521.04 175.2 518.16 180.72 512.4 183.04V183.28C515.6 184.24 517.84 186.2 519.12 189.16C520.48 192.12 521.16 196.08 521.16 201.04V215.8C521.16 218.2 521.24 220.16 521.4 221.68C521.56 223.12 521.96 224.56 522.6 226H509.16C508.68 224.64 508.36 223.36 508.2 222.16C508.04 220.96 507.96 218.8 507.96 215.68V200.32C507.96 196.48 507.32 193.8 506.04 192.28C504.84 190.76 502.72 190 499.68 190H495.12V226H481.92V142ZM499.92 178C502.56 178 504.52 177.32 505.8 175.96C507.16 174.6 507.84 172.32 507.84 169.12V162.64C507.84 159.6 507.28 157.4 506.16 156.04C505.12 154.68 503.44 154 501.12 154H495.12V178H499.92Z" fill="#03091D"/>
<g clip-path="url(#clip0_2_160)">
<path d="M525.786 93.5469H528.356C528.252 92.6764 527.829 92.2451 527.071 92.2451C526.312 92.2451 525.881 92.6844 525.786 93.5469ZM529.888 95.3519V96.5179C529.178 97.037 528.3 97.2926 527.246 97.2926C526.193 97.2926 525.371 97.0131 524.748 96.454C524.125 95.895 523.814 95.1602 523.814 94.2338C523.814 93.3073 524.109 92.5886 524.692 92.0055C525.275 91.4225 526.025 91.135 526.927 91.135C527.829 91.135 528.587 91.4465 529.17 92.0535C529.753 92.6684 530.024 93.483 529.984 94.5133H525.738C525.778 95.0484 525.961 95.4637 526.312 95.7512C526.656 96.0387 527.111 96.1905 527.693 96.1905C528.388 96.1905 529.122 95.9109 529.888 95.3439V95.3519ZM523.16 91.2708V92.5406H521.004V94.9845C521.004 95.28 521.084 95.5116 521.244 95.6793C521.404 95.847 521.627 95.9349 521.914 95.9349C522.298 95.9349 522.713 95.8231 523.16 95.5915V96.9332C522.569 97.1808 521.994 97.3086 521.435 97.3086C520.709 97.3086 520.142 97.1249 519.743 96.7415C519.344 96.3662 519.145 95.8151 519.145 95.0883V92.5486H518.299V92.1892L520.773 89.4259H521.004V91.2788H523.16V91.2708ZM515.505 97.1728V96.3262C514.954 96.9731 514.324 97.3006 513.589 97.3006C512.943 97.3006 512.424 97.1009 512.025 96.7016C511.626 96.3023 511.426 95.7512 511.426 95.0564V91.2708H513.286V94.9286C513.286 95.6793 513.597 96.0547 514.228 96.0547C514.579 96.0547 514.882 95.9189 515.138 95.6474C515.385 95.3678 515.513 95.1682 515.513 95.0404V91.2708H517.373V97.1728H515.513H515.505ZM510.468 91.2708V92.5406H508.313V94.9845C508.313 95.28 508.393 95.5116 508.553 95.6793C508.712 95.847 508.936 95.9349 509.223 95.9349C509.606 95.9349 510.021 95.8231 510.468 95.5915V96.9332C509.878 97.1808 509.303 97.3086 508.744 97.3086C508.018 97.3086 507.451 97.1249 507.052 96.7415C506.653 96.3662 506.453 95.8151 506.453 95.0883V92.5486H505.607V92.1892L508.082 89.4259H508.313V91.2788H510.468V91.2708ZM504.642 91.2708V97.1728H502.782V91.2708H504.642ZM502.678 89.3381C502.678 89.0506 502.782 88.811 502.981 88.6113C503.181 88.4116 503.42 88.3158 503.708 88.3158C503.995 88.3158 504.234 88.4196 504.434 88.6113C504.634 88.811 504.737 89.0506 504.737 89.3381C504.737 89.6256 504.634 89.8572 504.434 90.0568C504.234 90.2565 503.995 90.3603 503.708 90.3603C503.42 90.3603 503.189 90.2565 502.981 90.0568C502.782 89.8572 502.678 89.6176 502.678 89.3381ZM501.784 91.2708V92.5406H499.629V94.9845C499.629 95.28 499.709 95.5116 499.868 95.6793C500.028 95.847 500.252 95.9349 500.539 95.9349C500.922 95.9349 501.337 95.8231 501.784 95.5915V96.9332C501.193 97.1808 500.619 97.3086 500.06 97.3086C499.334 97.3086 498.767 97.1249 498.368 96.7415C497.969 96.3662 497.769 95.8151 497.769 95.0883V92.5486H496.923V92.1892L499.397 89.4259H499.629V91.2788H501.784V91.2708ZM496.125 91.5823V92.9C495.415 92.4767 494.76 92.2611 494.153 92.2611C493.706 92.2611 493.483 92.4129 493.483 92.7243C493.483 92.8042 493.531 92.8841 493.619 92.9639C493.706 93.0438 494.074 93.2035 494.696 93.4511C495.327 93.6987 495.766 93.9862 496.029 94.3136C496.285 94.6411 496.42 94.9925 496.42 95.3838C496.42 95.9988 496.213 96.47 495.79 96.8054C495.375 97.1408 494.776 97.3086 494.002 97.3086C493.227 97.3086 492.501 97.1648 491.887 96.8773V95.5675C492.645 95.9029 493.283 96.0627 493.794 96.0627C494.393 96.0627 494.696 95.9189 494.696 95.6234C494.696 95.5116 494.64 95.4078 494.529 95.304C494.417 95.2001 494.042 95.0324 493.411 94.7848C492.78 94.5373 492.341 94.2657 492.11 93.9622C491.879 93.6667 491.759 93.3313 491.759 92.9719C491.759 92.4288 491.982 91.9896 492.429 91.6541C492.876 91.3187 493.467 91.143 494.209 91.143C494.952 91.143 495.55 91.2868 496.117 91.5823H496.125ZM486.435 91.2708V92.1014C486.986 91.4625 487.624 91.143 488.359 91.143C488.973 91.143 489.484 91.3427 489.899 91.734C490.314 92.1253 490.514 92.6844 490.514 93.4191V97.1728H488.654V93.5709C488.654 92.7802 488.343 92.3889 487.728 92.3889C487.289 92.3889 486.858 92.7163 486.427 93.3632V97.1728H484.567V91.2708H486.427H486.435ZM482.771 88.4436V97.1728H480.592V88.4436H482.771ZM471.325 93.5469H473.895C473.792 92.6764 473.369 92.2451 472.61 92.2451C471.852 92.2451 471.421 92.6844 471.325 93.5469ZM475.436 95.3519V96.5179C474.725 97.037 473.847 97.2926 472.794 97.2926C471.74 97.2926 470.918 97.0131 470.296 96.454C469.673 95.895 469.362 95.1602 469.362 94.2338C469.362 93.3073 469.657 92.5886 470.24 92.0055C470.822 91.4225 471.573 91.135 472.475 91.135C473.377 91.135 474.135 91.4465 474.717 92.0535C475.3 92.6684 475.572 93.483 475.532 94.5133H471.285C471.325 95.0484 471.509 95.4637 471.86 95.7512C472.203 96.0387 472.658 96.1905 473.241 96.1905C473.935 96.1905 474.67 95.9109 475.436 95.3439V95.3519ZM469.322 91.2708L465.363 100H463.391L465.123 96.2064L462.816 91.2708H464.804L466.041 94.2897L467.374 91.2708H469.322ZM462.098 95.5755V97.1728H455.641V88.4436H462.002V90.0409H457.82V91.8698H461.811V93.4671H457.82V95.5675H462.09L462.098 95.5755ZM448.457 95.5675V92.7323C448.122 92.5007 447.779 92.3889 447.419 92.3889C446.956 92.3889 446.589 92.5566 446.326 92.8761C446.07 93.2035 445.935 93.6667 445.935 94.2497C445.935 94.7928 446.062 95.2321 446.318 95.5595C446.573 95.887 446.917 96.0547 447.348 96.0547C447.723 96.0547 448.098 95.887 448.449 95.5675H448.457ZM450.317 88.4436V97.1728H448.457V96.6936C447.986 97.0929 447.435 97.3006 446.821 97.3006C446.031 97.3006 445.376 97.0051 444.849 96.4221C444.322 95.839 444.059 95.1043 444.059 94.2178C444.059 93.3313 444.322 92.5806 444.865 92.0055C445.4 91.4305 446.086 91.143 446.925 91.143C447.443 91.143 447.954 91.2708 448.465 91.5184V88.4436H450.325H450.317ZM440.731 95.7512V94.3136C440.108 94.5293 439.677 94.7289 439.446 94.9046C439.214 95.0803 439.094 95.296 439.094 95.5675C439.094 95.7432 439.15 95.887 439.27 96.0148C439.39 96.1425 439.525 96.1984 439.693 96.1984C440.044 96.1984 440.387 96.0467 440.723 95.7512H440.731ZM443.604 95.7272V96.7575C442.989 97.1169 442.407 97.3006 441.864 97.3006C441.281 97.3006 440.93 97.077 440.826 96.6377C440.18 97.077 439.525 97.3006 438.879 97.3006C438.416 97.3006 438.025 97.1568 437.705 96.8613C437.386 96.5658 437.219 96.2304 437.219 95.847C437.219 95.3359 437.386 94.9206 437.713 94.6011C438.049 94.2817 439.054 93.8744 440.731 93.3792C440.771 92.7163 440.427 92.3809 439.701 92.3809C438.911 92.3809 438.184 92.7084 437.522 93.3632V91.8538C438.296 91.3746 439.15 91.135 440.084 91.135C441.752 91.135 442.59 91.734 442.59 92.932V95.6314C442.59 95.9029 442.694 96.0467 442.902 96.0467C443.053 96.0467 443.285 95.9349 443.604 95.7113V95.7272ZM436.157 91.5823V92.9C435.447 92.4767 434.792 92.2611 434.185 92.2611C433.738 92.2611 433.515 92.4129 433.515 92.7243C433.515 92.8042 433.563 92.8841 433.651 92.9639C433.738 93.0438 434.106 93.2035 434.728 93.4511C435.359 93.6987 435.798 93.9862 436.061 94.3136C436.317 94.6411 436.452 94.9925 436.452 95.3838C436.452 95.9988 436.245 96.47 435.822 96.8054C435.407 97.1408 434.808 97.3086 434.034 97.3086C433.26 97.3086 432.533 97.1648 431.919 96.8773V95.5675C432.677 95.9029 433.315 96.0627 433.826 96.0627C434.425 96.0627 434.728 95.9189 434.728 95.6234C434.728 95.5116 434.672 95.4078 434.561 95.304C434.449 95.2001 434.074 95.0324 433.443 94.7848C432.813 94.5373 432.374 94.2657 432.142 93.9622C431.911 93.6667 431.791 93.3313 431.791 92.9719C431.791 92.4288 432.014 91.9896 432.461 91.6541C432.908 91.3187 433.499 91.143 434.241 91.143C434.984 91.143 435.582 91.2868 436.157 91.5823ZM428.446 95.7512V94.3136C427.824 94.5293 427.401 94.7289 427.169 94.9046C426.938 95.0803 426.818 95.296 426.818 95.5675C426.818 95.7432 426.874 95.887 426.994 96.0148C427.114 96.1425 427.249 96.1984 427.417 96.1984C427.768 96.1984 428.111 96.0467 428.446 95.7512ZM431.32 95.7272V96.7575C430.705 97.1169 430.123 97.3006 429.58 97.3006C428.997 97.3006 428.646 97.077 428.542 96.6377C427.896 97.077 427.241 97.3006 426.595 97.3006C426.132 97.3006 425.741 97.1568 425.421 96.8613C425.102 96.5658 424.934 96.2304 424.934 95.847C424.934 95.3359 425.102 94.9206 425.429 94.6011C425.765 94.2817 426.77 93.8744 428.446 93.3792C428.486 92.7163 428.143 92.3809 427.417 92.3809C426.627 92.3809 425.9 92.7084 425.238 93.3632V91.8538C426.012 91.3746 426.866 91.135 427.8 91.135C429.468 91.135 430.306 91.734 430.306 92.932V95.6314C430.306 95.9029 430.41 96.0467 430.618 96.0467C430.769 96.0467 431.001 95.9349 431.32 95.7113V95.7272ZM421.438 91.2708V92.9559H421.462C422.005 91.75 422.628 91.143 423.346 91.143C423.689 91.143 424.096 91.3187 424.583 91.6781L424.064 93.3153C423.609 93.0278 423.242 92.8761 422.963 92.8761C422.532 92.8761 422.173 93.1396 421.877 93.6747C421.582 94.2098 421.43 94.5133 421.43 94.6011V97.1568H419.571V91.2548H421.43L421.438 91.2708ZM413.584 90.0409V92.0614H414.598C415.508 92.0614 415.955 91.726 415.955 91.0472C415.955 90.6638 415.835 90.4083 415.588 90.2565C415.348 90.1128 414.933 90.0329 414.35 90.0329H413.584V90.0409ZM411.405 88.4436H415.308C416.194 88.4436 416.897 88.6991 417.423 89.2103C417.942 89.7214 418.206 90.3284 418.206 91.0232C418.206 91.718 417.95 92.3729 417.431 92.8841C416.913 93.4032 416.21 93.6587 415.324 93.6587H413.584V97.1648H411.405V88.4356V88.4436ZM406.776 88.4436L402.729 97.3006H401.787L397.541 88.4436H399.919L402.234 93.4271L404.429 88.4436H406.776ZM395.673 95.5755V97.1728H389V88.4436H391.179V95.5675H395.673V95.5755Z" fill="white"/>
<path fill-rule="evenodd" clip-rule="evenodd" d="M459.512 15C484.807 15 505.32 31.4122 505.328 51.6499C505.328 64.3404 497.266 75.5215 485.006 82.1023L484.854 81.9506C496.348 75.6093 503.867 65.1311 503.867 53.2712C503.867 33.9279 483.873 18.2425 459.233 18.2425C434.593 18.2425 414.598 33.9279 414.606 53.2712C414.606 54.7327 414.718 56.1782 414.941 57.5998H414.319C413.919 55.6671 413.72 53.6785 413.72 51.6579C413.704 31.4122 434.217 15 459.512 15Z" fill="white"/>
<path fill-rule="evenodd" clip-rule="evenodd" d="M498.384 73.7006V42.1939H500.363V73.7006H498.384ZM478.533 73.7006V42.1939H492.365V44.2225H480.512V56.8491H492.094V58.8777H480.512V71.664H492.804V73.7006H478.533ZM460.909 57.1446H465.977C467.941 57.1446 469.473 56.5935 470.559 55.4754C471.644 54.3653 472.179 52.8 472.179 50.7874C472.179 48.7588 471.644 47.1855 470.559 46.0594C469.473 44.9413 467.949 44.3822 465.977 44.3822H460.909V57.1446ZM458.929 73.7006V42.1939H465.403C468.212 42.1939 470.399 42.9526 471.988 44.4701C473.576 45.9875 474.358 48.0879 474.358 50.7794C474.358 53.4708 473.568 55.5473 471.988 57.0647C470.399 58.5742 468.204 59.3249 465.403 59.3249H460.909V73.7006H458.929ZM432.645 42.1939H434.656L443.692 68.9726H443.708L452.743 42.1939H454.747L443.923 74.02H443.484L432.653 42.1939H432.645ZM420.888 73.7006V42.1939H422.867V71.672H435.55V73.7085H420.888V73.7006Z" fill="white"/>
<path fill-rule="evenodd" clip-rule="evenodd" d="M420.8 81.9186V80.9842C420.991 81.128 421.207 81.2318 421.438 81.3037C421.67 81.3756 421.901 81.4075 422.141 81.4075C422.276 81.4075 422.396 81.3995 422.5 81.3756C422.604 81.3516 422.684 81.3196 422.755 81.2877C422.827 81.2478 422.875 81.2078 422.907 81.1519C422.939 81.104 422.955 81.0481 422.955 80.9842C422.955 80.9044 422.931 80.8325 422.875 80.7686C422.819 80.7047 422.739 80.6408 422.652 80.5929C422.556 80.537 422.444 80.4891 422.316 80.4411C422.181 80.3852 422.045 80.3373 421.901 80.2894C421.518 80.1536 421.239 79.9859 421.047 79.7862C420.864 79.5866 420.768 79.355 420.768 79.0755C420.768 78.8598 420.816 78.6681 420.92 78.5164C421.023 78.3647 421.159 78.2289 421.335 78.1251C421.51 78.0212 421.71 77.9494 421.941 77.9014C422.181 77.8535 422.42 77.8296 422.676 77.8296C422.931 77.8296 423.154 77.8455 423.346 77.8695C423.538 77.8935 423.721 77.9334 423.889 77.9893V78.8598C423.809 78.8119 423.713 78.772 423.617 78.732C423.53 78.6921 423.426 78.6681 423.33 78.6442C423.226 78.6202 423.123 78.6043 423.027 78.5883C422.923 78.5723 422.835 78.5723 422.739 78.5723C422.612 78.5723 422.5 78.5803 422.396 78.6042C422.292 78.6282 422.213 78.6522 422.141 78.6921C422.069 78.732 422.013 78.772 421.973 78.8199C421.941 78.8678 421.917 78.9237 421.917 78.9956C421.917 79.0675 421.941 79.1234 421.981 79.1793C422.021 79.2352 422.085 79.2831 422.165 79.339C422.245 79.3869 422.34 79.4348 422.452 79.4828C422.564 79.5307 422.692 79.5786 422.835 79.6345C423.027 79.6984 423.202 79.7783 423.362 79.8581C423.514 79.938 423.649 80.0258 423.753 80.1297C423.865 80.2255 423.945 80.3373 424.009 80.4731C424.064 80.6009 424.088 80.7446 424.088 80.9123C424.088 81.1439 424.04 81.3436 423.937 81.5033C423.833 81.6551 423.697 81.7908 423.522 81.8867C423.346 81.9825 423.139 82.0544 422.907 82.1023C422.676 82.1423 422.428 82.1582 422.173 82.1582C421.901 82.1582 421.654 82.1423 421.406 82.1023C421.167 82.0624 420.959 81.9985 420.784 81.9266L420.8 81.9186Z" fill="white"/>
<path fill-rule="evenodd" clip-rule="evenodd" d="M426.85 79.7224C426.603 79.7224 426.403 79.7942 426.259 79.946C426.124 80.0977 426.052 80.3134 426.052 80.5849C426.052 81.1599 426.323 81.4474 426.858 81.4474C427.393 81.4474 427.624 81.1519 427.624 80.5609C427.624 80.0019 427.369 79.7224 426.85 79.7224ZM426.818 82.1502C426.243 82.1502 425.788 82.0145 425.461 81.7349C425.126 81.4554 424.958 81.0801 424.958 80.6009C424.958 80.1217 425.134 79.7144 425.469 79.4428C425.812 79.1633 426.283 79.0275 426.866 79.0275C427.449 79.0275 427.896 79.1633 428.215 79.4428C428.55 79.7144 428.71 80.0897 428.71 80.545C428.71 81.0401 428.542 81.4315 428.207 81.719C427.872 82.0065 427.409 82.1502 426.818 82.1502Z" fill="white"/>
<path fill-rule="evenodd" clip-rule="evenodd" d="M433.411 82.0384C433.252 82.1103 433.02 82.1423 432.701 82.1423C431.951 82.1423 431.567 81.8068 431.567 81.136V79.7703H431.009V79.0914H431.567V78.4445L432.637 78.181V79.0914H433.411V79.7703H432.637V80.9762C432.637 81.2877 432.781 81.4395 433.068 81.4395C433.18 81.4395 433.299 81.4075 433.411 81.3596V82.0384Z" fill="white"/>
<path fill-rule="evenodd" clip-rule="evenodd" d="M437.713 82.0784H436.644V80.3852C436.644 79.946 436.46 79.7303 436.085 79.7303C435.902 79.7303 435.742 79.7862 435.63 79.914C435.51 80.0338 435.447 80.1856 435.447 80.3772V82.0784H434.377V77.6618H435.447V79.5387H435.463C435.726 79.1952 436.077 79.0275 436.532 79.0275C437.314 79.0275 437.713 79.4348 437.713 80.2495V82.0863V82.0784Z" fill="white"/>
<path fill-rule="evenodd" clip-rule="evenodd" d="M440.802 80.8644V80.6648L440.172 80.7366C439.829 80.7766 439.653 80.9123 439.653 81.1439C439.653 81.2478 439.693 81.3356 439.781 81.3995C439.869 81.4634 439.98 81.5033 440.124 81.5033C440.324 81.5033 440.483 81.4474 440.619 81.3276C440.747 81.2078 440.802 81.0561 440.802 80.8724V80.8644ZM441.808 82.0784H440.794V81.6471H440.778C440.547 81.9825 440.204 82.1502 439.749 82.1502C439.414 82.1502 439.142 82.0704 438.959 81.9027C438.767 81.7349 438.671 81.5193 438.671 81.2478C438.671 80.6648 439.062 80.3373 439.861 80.2415L440.802 80.1376C440.802 79.8102 440.595 79.6505 440.188 79.6505C439.781 79.6505 439.382 79.7543 439.007 79.9699V79.2751C439.158 79.2112 439.358 79.1473 439.613 79.0994C439.877 79.0515 440.116 79.0275 440.324 79.0275C441.313 79.0275 441.808 79.4508 441.808 80.2974V82.0863V82.0784Z" fill="white"/>
<path fill-rule="evenodd" clip-rule="evenodd" d="M445.105 82.0384C444.945 82.1103 444.706 82.1423 444.394 82.1423C443.644 82.1423 443.261 81.8068 443.261 81.136V79.7703H442.702V79.0914H443.261V78.4445L444.33 78.181V79.0914H445.105V79.7703H444.33V80.9762C444.33 81.2877 444.474 81.4395 444.761 81.4395C444.873 81.4395 444.993 81.4075 445.105 81.3596V82.0384Z" fill="white"/>
<path fill-rule="evenodd" clip-rule="evenodd" d="M449.503 80.8644V80.6648L448.872 80.7366C448.529 80.7766 448.353 80.9123 448.353 81.1439C448.353 81.2478 448.393 81.3356 448.481 81.3995C448.569 81.4634 448.681 81.5033 448.824 81.5033C449.024 81.5033 449.183 81.4474 449.319 81.3276C449.447 81.2078 449.503 81.0561 449.503 80.8724V80.8644ZM450.508 82.0784H449.495V81.6471H449.479C449.247 81.9825 448.904 82.1502 448.449 82.1502C448.114 82.1502 447.842 82.0704 447.659 81.9027C447.467 81.7349 447.372 81.5193 447.372 81.2478C447.372 80.6648 447.763 80.3373 448.561 80.2415L449.503 80.1376C449.503 79.8102 449.295 79.6505 448.888 79.6505C448.481 79.6505 448.082 79.7543 447.707 79.9699V79.2751C447.858 79.2112 448.058 79.1473 448.313 79.0994C448.577 79.0515 448.816 79.0275 449.024 79.0275C450.014 79.0275 450.508 79.4508 450.508 80.2974V82.0863V82.0784Z" fill="white"/>
<path d="M452.791 77.6539H451.722V82.0704H452.791V77.6539Z" fill="white"/>
<path d="M455.122 77.6539H454.052V82.0704H455.122V77.6539Z" fill="white"/>
<path fill-rule="evenodd" clip-rule="evenodd" d="M463.439 82.0784H462.369V80.3772C462.369 79.938 462.186 79.7303 461.811 79.7303C461.635 79.7303 461.491 79.7942 461.38 79.93C461.268 80.0578 461.212 80.2255 461.212 80.4172V82.0863H460.143V80.3693C460.143 79.946 459.959 79.7383 459.592 79.7383C459.408 79.7383 459.265 79.7942 459.153 79.922C459.041 80.0498 458.985 80.2175 458.985 80.4331V82.0943H457.916V79.1074H458.985V79.5706H459.001C459.113 79.4109 459.273 79.2831 459.464 79.1793C459.664 79.0754 459.887 79.0275 460.119 79.0275C460.613 79.0275 460.941 79.2112 461.124 79.5866C461.388 79.2192 461.779 79.0275 462.29 79.0275C463.048 79.0275 463.423 79.4269 463.423 80.2255V82.0863L463.439 82.0784Z" fill="white"/>
<path fill-rule="evenodd" clip-rule="evenodd" d="M466.528 80.8644V80.6648L465.898 80.7366C465.554 80.7766 465.379 80.9123 465.379 81.1439C465.379 81.2478 465.419 81.3356 465.506 81.3995C465.594 81.4634 465.706 81.5033 465.85 81.5033C466.049 81.5033 466.209 81.4474 466.344 81.3276C466.472 81.2078 466.528 81.0561 466.528 80.8724V80.8644ZM467.534 82.0784H466.52V81.6471H466.504C466.273 81.9825 465.929 82.1502 465.474 82.1502C465.139 82.1502 464.868 82.0704 464.684 81.9027C464.493 81.7349 464.397 81.5193 464.397 81.2478C464.397 80.6648 464.796 80.3373 465.586 80.2415L466.528 80.1376C466.528 79.8102 466.321 79.6505 465.913 79.6505C465.506 79.6505 465.107 79.7543 464.732 79.9699V79.2751C464.884 79.2112 465.083 79.1473 465.339 79.0994C465.602 79.0515 465.842 79.0275 466.049 79.0275C467.039 79.0275 467.534 79.4508 467.534 80.2974V82.0863V82.0784Z" fill="white"/>
<path fill-rule="evenodd" clip-rule="evenodd" d="M472.044 79.0914L470.639 82.318C470.295 83.0926 469.793 83.484 469.106 83.484C468.851 83.484 468.635 83.46 468.468 83.4041V82.6694C468.603 82.7412 468.763 82.7732 468.931 82.7732C469.21 82.7732 469.394 82.6694 469.505 82.4378L469.689 82.0704L468.284 79.0914H469.473L470.12 80.9043C470.16 81.0162 470.2 81.1519 470.216 81.3037H470.232C470.256 81.1919 470.288 81.0561 470.343 80.9123L470.998 79.0914H472.059H472.044Z" fill="white"/>
<path fill-rule="evenodd" clip-rule="evenodd" d="M474.159 81.9985V81.2558C474.342 81.3436 474.51 81.4075 474.686 81.4554C474.861 81.4953 475.029 81.5193 475.188 81.5193C475.372 81.5193 475.532 81.4953 475.635 81.4554C475.747 81.4075 475.803 81.3436 475.803 81.2558C475.803 81.1998 475.779 81.1519 475.723 81.104C475.675 81.0721 475.611 81.0321 475.54 81.0002C475.46 80.9682 475.372 80.9443 475.284 80.9203C475.196 80.8964 475.101 80.8724 475.013 80.8405C474.877 80.7925 474.757 80.7446 474.654 80.6967C474.55 80.6408 474.462 80.5849 474.39 80.521C474.318 80.4491 474.263 80.3693 474.223 80.2814C474.191 80.1936 474.167 80.0817 474.167 79.9619C474.167 79.7942 474.207 79.6505 474.302 79.5307C474.382 79.4029 474.494 79.3071 474.638 79.2352C474.781 79.1553 474.941 79.1074 475.125 79.0675C475.308 79.0355 475.5 79.0116 475.691 79.0116C475.843 79.0116 476.003 79.0116 476.154 79.0435C476.314 79.0595 476.473 79.0914 476.625 79.1314V79.8422C476.489 79.7703 476.338 79.7224 476.186 79.6904C476.034 79.6585 475.883 79.6425 475.731 79.6425C475.659 79.6425 475.595 79.6425 475.54 79.6585C475.476 79.6744 475.42 79.6904 475.372 79.7064C475.324 79.7303 475.292 79.7543 475.26 79.7862C475.236 79.8182 475.22 79.8581 475.22 79.8981C475.22 79.954 475.244 80.0019 475.284 80.0338C475.324 80.0738 475.372 80.1057 475.444 80.1376C475.508 80.1696 475.58 80.1936 475.659 80.2175C475.739 80.2335 475.819 80.2574 475.899 80.2814C476.034 80.3213 476.17 80.3693 476.29 80.4252C476.402 80.4731 476.497 80.529 476.577 80.6009C476.657 80.6727 476.721 80.7526 476.769 80.8405C476.809 80.9363 476.833 81.0401 476.833 81.1679C476.833 81.3436 476.793 81.4953 476.705 81.6231C476.617 81.7509 476.497 81.8468 476.354 81.9266C476.202 82.0065 476.034 82.0624 475.843 82.1023C475.651 82.1343 475.452 82.1582 475.236 82.1582C474.853 82.1582 474.502 82.1103 474.175 82.0065L474.159 81.9985Z" fill="white"/>
<path fill-rule="evenodd" clip-rule="evenodd" d="M479.922 80.2814C479.922 79.8581 479.722 79.6425 479.315 79.6425C479.147 79.6425 478.996 79.6984 478.868 79.8182C478.74 79.946 478.669 80.0977 478.637 80.2814H479.914H479.922ZM480.911 80.8484H478.653C478.684 81.2797 479.004 81.4954 479.602 81.4954C479.986 81.4954 480.321 81.4155 480.608 81.2637V81.9266C480.289 82.0784 479.874 82.1502 479.363 82.1502C478.804 82.1502 478.373 82.0225 478.062 81.7509C477.759 81.4794 477.599 81.112 477.599 80.6328C477.599 80.1536 477.767 79.7463 478.102 79.4508C478.437 79.1633 478.844 79.0195 479.331 79.0195C479.818 79.0195 480.233 79.1473 480.504 79.4109C480.784 79.6664 480.919 80.0179 480.919 80.4651V80.8564L480.911 80.8484Z" fill="white"/>
<path fill-rule="evenodd" clip-rule="evenodd" d="M484.04 80.2814C484.04 79.8581 483.841 79.6425 483.434 79.6425C483.266 79.6425 483.114 79.6984 482.987 79.8182C482.859 79.946 482.787 80.0977 482.755 80.2814H484.032H484.04ZM485.03 80.8484H482.771C482.803 81.2797 483.122 81.4954 483.721 81.4954C484.104 81.4954 484.439 81.4155 484.727 81.2637V81.9266C484.407 82.0784 483.992 82.1502 483.482 82.1502C482.923 82.1502 482.492 82.0225 482.181 81.7509C481.877 81.4794 481.718 81.112 481.718 80.6328C481.718 80.1376 481.885 79.7463 482.22 79.4508C482.556 79.1633 482.963 79.0195 483.45 79.0195C483.937 79.0195 484.352 79.1473 484.623 79.4109C484.902 79.6664 485.038 80.0179 485.038 80.4651V80.8564L485.03 80.8484Z" fill="white"/>
</g>
<defs>
<clipPath id="clip0_2_160">
<rect width="141" height="85" fill="white" transform="translate(389 15)"/>
</clipPath>
</defs>
</svg>
